PathFileType	4	(X/Y/Z)	C:\Users\italobelli\Desktop\GitHub\PTbot_officialCBL\Personal_Results\SHRUG01_noisy1.trc
DataRate	CameraRate	NumFrames	NumMarkers	Units	OrigDataRate	OrigDataStartFrame	OrigNumFrames
110.888889	110.888889	46	9	m	110.888889	188	500
Frame#	Time		gu		centelbow		EpL		centpxt8		centijc7		ij		ts		aa		ai
			X1	Y1	Z1	X2	Y2	Z2	X3	Y3	Z3	X4	Y4	Z4	X5	Y5	Z5	X6	Y6	Z6	X7	Y7	Z7	X8	Y8	Z8	X9	Y9	Z9

188	1.6864	-0.065065	0.051471	0.16103	-0.074895	-0.1745	0.24388	-0.052859	-0.16403	0.26503	-0.046816	-0.15316	-0.008669	-0.046816	0.031938	-0.008669	0	0	0	-0.13027	0.057394	0.04759	-0.090255	0.090713	0.15481	-0.14998	-0.045252	0.091373
189	1.6954	-0.065223	0.051197	0.16117	-0.075187	-0.17493	0.24329	-0.053165	-0.16452	0.26448	-0.046816	-0.15316	-0.008669	-0.046816	0.031938	-0.008669	0	0	0	-0.13034	0.057398	0.047501	-0.090393	0.090478	0.15481	-0.15019	-0.04531	0.091037
190	1.7044	-0.065385	0.050904	0.16132	-0.075485	-0.17538	0.24269	-0.053477	-0.16503	0.26392	-0.046816	-0.15316	-0.008669	-0.046816	0.031938	-0.008669	0	0	0	-0.13041	0.057394	0.047413	-0.090535	0.090223	0.15481	-0.15041	-0.045379	0.090694
191	1.7134	-0.06555	0.050593	0.16147	-0.075789	-0.17586	0.24208	-0.053795	-0.16556	0.26335	-0.046816	-0.15316	-0.008669	-0.046816	0.031938	-0.008669	0	0	0	-0.13048	0.057384	0.047327	-0.090682	0.08995	0.15482	-0.15064	-0.045458	0.090345
192	1.7224	-0.065719	0.050263	0.16162	-0.076098	-0.17635	0.24146	-0.054118	-0.16612	0.26277	-0.046816	-0.15316	-0.008669	-0.046816	0.031938	-0.008669	0	0	0	-0.13056	0.057366	0.047243	-0.090832	0.089659	0.15484	-0.15086	-0.045546	0.08999
193	1.7315	-0.06589	0.049916	0.16177	-0.076411	-0.17687	0.24082	-0.054445	-0.16669	0.26218	-0.046816	-0.15316	-0.008669	-0.046816	0.031938	-0.008669	0	0	0	-0.13064	0.057342	0.047161	-0.090986	0.08935	0.15485	-0.15109	-0.045644	0.08963
194	1.7405	-0.066063	0.049552	0.16193	-0.076729	-0.17741	0.24018	-0.054777	-0.16729	0.26158	-0.046816	-0.15316	-0.008669	-0.046816	0.031938	-0.008669	0	0	0	-0.13072	0.05731	0.047081	-0.091143	0.089024	0.15488	-0.15133	-0.045752	0.089265
195	1.7495	-0.06624	0.049172	0.16209	-0.07705	-0.17796	0.23953	-0.055112	-0.16791	0.26097	-0.046816	-0.15316	-0.008669	-0.046816	0.031938	-0.008669	0	0	0	-0.1308	0.057272	0.047003	-0.091304	0.088682	0.15491	-0.15156	-0.045868	0.088896
196	1.7585	-0.066418	0.048776	0.16224	-0.077375	-0.17853	0.23887	-0.05545	-0.16855	0.26035	-0.046816	-0.15316	-0.008669	-0.046816	0.031938	-0.008669	0	0	0	-0.13089	0.057228	0.046927	-0.091468	0.088323	0.15494	-0.1518	-0.045994	0.088523
197	1.7675	-0.066598	0.048364	0.1624	-0.077703	-0.17912	0.23821	-0.05579	-0.1692	0.25973	-0.046816	-0.15316	-0.008669	-0.046816	0.031938	-0.008669	0	0	0	-0.13097	0.057177	0.046853	-0.091634	0.087949	0.15498	-0.15204	-0.046128	0.088148
198	1.7766	-0.066781	0.047938	0.16256	-0.078033	-0.17973	0.23754	-0.056132	-0.16987	0.2591	-0.046816	-0.15316	-0.008669	-0.046816	0.031938	-0.008669	0	0	0	-0.13106	0.057119	0.046782	-0.091803	0.08756	0.15502	-0.15228	-0.046272	0.08777
199	1.7856	-0.066964	0.047497	0.16272	-0.078365	-0.18035	0.23687	-0.056476	-0.17056	0.25847	-0.046816	-0.15316	-0.008669	-0.046816	0.031938	-0.008669	0	0	0	-0.13115	0.057055	0.046714	-0.091974	0.087156	0.15506	-0.15252	-0.046423	0.087391
200	1.7946	-0.067149	0.047042	0.16288	-0.078699	-0.18099	0.2362	-0.056821	-0.17127	0.25784	-0.046816	-0.15316	-0.008669	-0.046816	0.031938	-0.008669	0	0	0	-0.13125	0.056984	0.046648	-0.092148	0.086738	0.15512	-0.15276	-0.046583	0.08701
201	1.8036	-0.067335	0.046575	0.16304	-0.079034	-0.18164	0.23553	-0.057166	-0.17199	0.2572	-0.046816	-0.15316	-0.008669	-0.046816	0.031938	-0.008669	0	0	0	-0.13134	0.056907	0.046585	-0.092323	0.086307	0.15517	-0.153	-0.046751	0.086629
202	1.8126	-0.067523	0.046094	0.1632	-0.07937	-0.18231	0.23485	-0.057511	-0.17272	0.25657	-0.046816	-0.15316	-0.008669	-0.046816	0.031938	-0.008669	0	0	0	-0.13144	0.056824	0.046524	-0.092501	0.085862	0.15523	-0.15325	-0.046927	0.086248
203	1.8216	-0.06771	0.045601	0.16335	-0.079706	-0.18299	0.23418	-0.057855	-0.17347	0.25593	-0.046816	-0.15316	-0.008669	-0.046816	0.031938	-0.008669	0	0	0	-0.13153	0.056735	0.046467	-0.092679	0.085405	0.1553	-0.15349	-0.04711	0.085867
204	1.8307	-0.067898	0.045097	0.16351	-0.080042	-0.18368	0.23351	-0.058198	-0.17422	0.2553	-0.046816	-0.15316	-0.008669	-0.046816	0.031938	-0.008669	0	0	0	-0.13163	0.05664	0.046412	-0.09286	0.084936	0.15537	-0.15373	-0.047301	0.085487
205	1.8397	-0.068087	0.044582	0.16366	-0.080377	-0.18438	0.23285	-0.05854	-0.17499	0.25467	-0.046816	-0.15316	-0.008669	-0.046816	0.031938	-0.008669	0	0	0	-0.13173	0.056539	0.046361	-0.093041	0.084456	0.15544	-0.15396	-0.0475	0.085109
206	1.8487	-0.068275	0.044056	0.16381	-0.080711	-0.18509	0.23219	-0.058879	-0.17578	0.25404	-0.046816	-0.15316	-0.008669	-0.046816	0.031938	-0.008669	0	0	0	-0.13183	0.056432	0.046312	-0.093223	0.083964	0.15552	-0.1542	-0.047705	0.084734
207	1.8577	-0.068464	0.04352	0.16396	-0.081044	-0.18581	0.23153	-0.059215	-0.17657	0.25342	-0.046816	-0.15316	-0.008669	-0.046816	0.031938	-0.008669	0	0	0	-0.13193	0.056319	0.046267	-0.093406	0.083461	0.1556	-0.15443	-0.047917	0.084361
208	1.8667	-0.068651	0.042974	0.16411	-0.081375	-0.18654	0.23089	-0.059549	-0.17736	0.25281	-0.046816	-0.15316	-0.008669	-0.046816	0.031938	-0.008669	0	0	0	-0.13203	0.0562	0.046225	-0.093589	0.082949	0.15569	-0.15466	-0.048137	0.083992
209	1.8758	-0.068839	0.04242	0.16425	-0.081704	-0.18728	0.23025	-0.059878	-0.17817	0.2522	-0.046816	-0.15316	-0.008669	-0.046816	0.031938	-0.008669	0	0	0	-0.13214	0.056076	0.046187	-0.093773	0.082427	0.15578	-0.15489	-0.048362	0.083626
210	1.8848	-0.069025	0.041857	0.16439	-0.08203	-0.18803	0.22962	-0.060203	-0.17898	0.2516	-0.046816	-0.15316	-0.008669	-0.046816	0.031938	-0.008669	0	0	0	-0.13224	0.055947	0.046152	-0.093956	0.081895	0.15588	-0.15511	-0.048594	0.083265
211	1.8938	-0.06921	0.041286	0.16453	-0.082353	-0.18878	0.22901	-0.060523	-0.1798	0.251	-0.046816	-0.15316	-0.008669	-0.046816	0.031938	-0.008669	0	0	0	-0.13234	0.055811	0.04612	-0.09414	0.081356	0.15597	-0.15533	-0.048832	0.08291
212	1.9028	-0.069394	0.040708	0.16466	-0.082672	-0.18954	0.2284	-0.060838	-0.18063	0.25042	-0.046816	-0.15316	-0.008669	-0.046816	0.031938	-0.008669	0	0	0	-0.13244	0.055671	0.046092	-0.094323	0.080808	0.15608	-0.15554	-0.049076	0.08256
213	1.9118	-0.069577	0.040123	0.16479	-0.082987	-0.1903	0.22781	-0.061148	-0.18146	0.24985	-0.046816	-0.15316	-0.008669	-0.046816	0.031938	-0.008669	0	0	0	-0.13255	0.055525	0.046068	-0.094506	0.080252	0.15618	-0.15575	-0.049326	0.082216
214	1.9208	-0.069758	0.039532	0.16491	-0.083298	-0.19107	0.22724	-0.06145	-0.18229	0.24929	-0.046816	-0.15316	-0.008669	-0.046816	0.031938	-0.008669	0	0	0	-0.13265	0.055373	0.046048	-0.094688	0.07969	0.1563	-0.15595	-0.049582	0.081879
215	1.9299	-0.069937	0.038935	0.16503	-0.083603	-0.19184	0.22668	-0.061746	-0.18313	0.24874	-0.046816	-0.15316	-0.008669	-0.046816	0.031938	-0.008669	0	0	0	-0.13275	0.055217	0.046032	-0.094868	0.07912	0.15641	-0.15615	-0.049843	0.08155
216	1.9389	-0.070113	0.038333	0.16514	-0.083904	-0.19261	0.22613	-0.062035	-0.18396	0.24821	-0.046816	-0.15316	-0.008669	-0.046816	0.031938	-0.008669	0	0	0	-0.13285	0.055055	0.04602	-0.095048	0.078545	0.15653	-0.15634	-0.050109	0.081228
217	1.9479	-0.070288	0.037726	0.16525	-0.084198	-0.19338	0.22561	-0.062315	-0.1848	0.2477	-0.046816	-0.15316	-0.008669	-0.046816	0.031938	-0.008669	0	0	0	-0.13295	0.054889	0.046012	-0.095226	0.077964	0.15665	-0.15652	-0.05038	0.080916
218	1.9569	-0.070459	0.037115	0.16535	-0.084486	-0.19416	0.2251	-0.062587	-0.18564	0.2472	-0.046816	-0.15316	-0.008669	-0.046816	0.031938	-0.008669	0	0	0	-0.13305	0.054717	0.046008	-0.095403	0.077378	0.15678	-0.1567	-0.050656	0.080612
219	1.9659	-0.070628	0.0365	0.16545	-0.084768	-0.19493	0.22462	-0.06285	-0.18648	0.24672	-0.046816	-0.15316	-0.008669	-0.046816	0.031938	-0.008669	0	0	0	-0.13315	0.054541	0.046008	-0.095578	0.076787	0.15691	-0.15687	-0.050936	0.080318
220	1.9749	-0.070794	0.035882	0.16554	-0.085042	-0.19571	0.22415	-0.063104	-0.18731	0.24625	-0.046816	-0.15316	-0.008669	-0.046816	0.031938	-0.008669	0	0	0	-0.13325	0.05436	0.046013	-0.095751	0.076193	0.15704	-0.15703	-0.051222	0.080035
221	1.984	-0.070957	0.035262	0.16562	-0.085309	-0.19648	0.22371	-0.063347	-0.18815	0.24581	-0.046816	-0.15316	-0.008669	-0.046816	0.031938	-0.008669	0	0	0	-0.13335	0.054174	0.046022	-0.095921	0.075594	0.15718	-0.15718	-0.051511	0.079762
222	1.993	-0.071116	0.034639	0.1657	-0.085568	-0.19725	0.2233	-0.06358	-0.18898	0.24538	-0.046816	-0.15316	-0.008669	-0.046816	0.031938	-0.008669	0	0	0	-0.13345	0.053983	0.046036	-0.096089	0.074993	0.15732	-0.15732	-0.051804	0.079501
223	2.002	-0.071271	0.034014	0.16576	-0.085819	-0.19802	0.2229	-0.063803	-0.1898	0.24498	-0.046816	-0.15316	-0.008669	-0.046816	0.031938	-0.008669	0	0	0	-0.13354	0.053788	0.046055	-0.096255	0.074387	0.15746	-0.15746	-0.052102	0.079251
224	2.011	-0.071429	0.033358	0.16583	-0.086071	-0.19882	0.22252	-0.064023	-0.19066	0.24458	-0.046816	-0.15316	-0.008669	-0.046816	0.031938	-0.008669	0	0	0	-0.13364	0.053569	0.04609	-0.096424	0.073749	0.15762	-0.15759	-0.052424	0.079004
225	2.02	-0.07159	0.032659	0.1659	-0.086327	-0.19967	0.22213	-0.064247	-0.19157	0.24418	-0.046816	-0.15316	-0.008669	-0.046816	0.031938	-0.008669	0	0	0	-0.13374	0.053321	0.046146	-0.096599	0.073066	0.1578	-0.15773	-0.052778	0.078754
226	2.0291	-0.071756	0.031918	0.16597	-0.086588	-0.20056	0.22175	-0.064472	-0.19252	0.24378	-0.046816	-0.15316	-0.008669	-0.046816	0.031938	-0.008669	0	0	0	-0.13385	0.053044	0.046221	-0.096779	0.072341	0.15799	-0.15787	-0.053162	0.078502
227	2.0381	-0.071925	0.03114	0.16604	-0.086853	-0.20149	0.22136	-0.0647	-0.19351	0.24337	-0.046816	-0.15316	-0.008669	-0.046816	0.031938	-0.008669	0	0	0	-0.13397	0.05274	0.046316	-0.096965	0.071574	0.15819	-0.158	-0.053575	0.078248
228	2.0471	-0.072097	0.030324	0.16611	-0.087122	-0.20246	0.22097	-0.06493	-0.19455	0.24296	-0.046816	-0.15316	-0.008669	-0.046816	0.031938	-0.008669	0	0	0	-0.13409	0.052409	0.046428	-0.097156	0.070769	0.15841	-0.15815	-0.054015	0.077992
229	2.0561	-0.072273	0.029473	0.16618	-0.087395	-0.20347	0.22058	-0.065162	-0.19562	0.24255	-0.046816	-0.15316	-0.008669	-0.046816	0.031938	-0.008669	0	0	0	-0.13422	0.052054	0.046558	-0.097352	0.069928	0.15865	-0.15829	-0.054482	0.077734
230	2.0651	-0.072451	0.02859	0.16625	-0.087671	-0.20451	0.22019	-0.065396	-0.19672	0.24214	-0.046816	-0.15316	-0.008669	-0.046816	0.031938	-0.008669	0	0	0	-0.13434	0.051676	0.046705	-0.097551	0.069052	0.1589	-0.15843	-0.054973	0.077475
231	2.0741	-0.072633	0.027676	0.16633	-0.087949	-0.20559	0.2198	-0.065631	-0.19786	0.24173	-0.046816	-0.15316	-0.008669	-0.046816	0.031938	-0.008669	0	0	0	-0.13448	0.051274	0.046867	-0.097755	0.068144	0.15916	-0.15858	-0.055488	0.077215
232	2.0832	-0.072816	0.026733	0.1664	-0.088231	-0.20669	0.21941	-0.065867	-0.19903	0.24131	-0.046816	-0.15316	-0.008669	-0.046816	0.031938	-0.008669	0	0	0	-0.13461	0.050852	0.047045	-0.097963	0.067205	0.15943	-0.15872	-0.056025	0.076953
233	2.0922	-0.073002	0.025763	0.16647	-0.088515	-0.20783	0.21902	-0.066105	-0.20023	0.24089	-0.046816	-0.15316	-0.008669	-0.046816	0.031938	-0.008669	0	0	0	-0.13476	0.05041	0.047237	-0.098174	0.066239	0.15972	-0.15887	-0.056583	0.076691
